# xmcd
#
# Track frame offsets:
#	150
#	12007
#	25940
#	39395
#	56742
#	73745
#	84950
#	102302
#	120630
#	130450
#	144595
#	154417
#	169857
#	184627
#	196590
#	217762
#	233852
#	250135
#
# Disc length: 3455 seconds
# Revision: 0
# Processed by: cddbd v1.5.2PL0 Copyright (c) Steve Scherf et al.
# Submitted via: dBpowerAMP V12.0
#
DISCID=f00d7d12
DTITLE=Various Artist - Country By The Grace Of God Disc 3
DYEAR=2007
DGENRE=Country
TTITLE0=Jim Reeves - May The Good Lord Bless And Keep You
TTITLE1=Glen Campbell - Rock Of Ages
TTITLE2=Willie Nelson - Family Bible
TTITLE3=Loretta Lynn - What A Friend We Have In Jesus
TTITLE4=Tennessee - When They Ring The Golden Bells
TTITLE5=Porter Wagoner - What Would You Do (If Jesus Came To Your House)
TTITLE6=Kathy Mattea - Seeds
TTITLE7=Don Willaims - Lord, I Hope This Day Is Good
TTITLE8=The Statler Brothers - I'll Fly Away
TTITLE9=Willie Nelson - Shall We Gather At The River
TTITLE10=Jerry Lee Lewis - When The Saints Go Marching In
TTITLE11=Cristy Lane - Have Thine Own Way Lord
TTITLE12=Jim Reeves - That Silver-Haired Daddy Of Mine
TTITLE13=Pat Boone - Turn Your Radio On
TTITLE14=Vince Gill - The Hills Of Caroline
TTITLE15=Marty Rabon - One Day At A Time
TTITLE16=Lee Greenwood - You Light Up My Life
TTITLE17=Jim Ed Brown - When The Roll Is Called Up Yonder
EXTD=
EXTT0=
EXTT1=
EXTT2=
EXTT3=
EXTT4=
EXTT5=
EXTT6=
EXTT7=
EXTT8=
EXTT9=
EXTT10=
EXTT11=
EXTT12=
EXTT13=
EXTT14=
EXTT15=
EXTT16=
EXTT17=
PLAYORDER=
